<svg xmlns="http://www.w3.org/2000/svg" xmlns:xlink="http://www.w3.org/1999/xlink" width="29.459" height="15.112" viewBox="0 0 29.459 15.112"><defs><style>.a{fill:url(#a);}.b{fill:#fff;font-size:8px;font-family:BrandingSF-BoldIt, Branding SF It;font-weight:700;font-style:italic;}</style><linearGradient id="a" x1="0.5" x2="0.5" y2="1" gradientUnits="objectBoundingBox"><stop offset="0" stop-color="#f75888"/><stop offset="0.745" stop-color="#e64072"/><stop offset="1" stop-color="#d5275b"/></linearGradient></defs><path class="a" d="M3446.979-1102.131h-19.687a2.789,2.789,0,0,0-2.1.955l-4.214,4.826a2.7,2.7,0,0,0,0,3.551l4.214,4.825a2.787,2.787,0,0,0,2.1.955h19.688a2.791,2.791,0,0,0,2.791-2.79v-9.531A2.791,2.791,0,0,0,3446.979-1102.131Zm-23.394,8.959a1.4,1.4,0,0,1-1.4-1.4,1.4,1.4,0,0,1,1.4-1.4,1.4,1.4,0,0,1,1.4,1.4A1.4,1.4,0,0,1,3423.584-1093.172Z" transform="translate(-3420.311 1102.131)"/><text class="b" transform="translate(7.375 9.431)"><tspan x="0" y="0">-30%</tspan></text></svg>