<svg xmlns="http://www.w3.org/2000/svg" xmlns:xlink="http://www.w3.org/1999/xlink" width="28" height="15" viewBox="0 0 28 15"><defs><style>.a{fill:url(#a);}.b{fill:#fff;}.c{fill:none;stroke:#fff;stroke-linecap:round;stroke-miterlimit:10;}.d{fill:#f2af21;font-size:5px;font-family:BrandingSF-BoldIt, Branding SF It;font-weight:700;font-style:italic;}</style><linearGradient id="a" x1="0.5" x2="0.5" y2="1" gradientUnits="objectBoundingBox"><stop offset="0" stop-color="#f2af21"/><stop offset="1" stop-color="#e9821b"/></linearGradient></defs><g transform="translate(-0.07 -0.014)"><rect class="a" width="28" height="15" rx="2" transform="translate(0.07 0.014)"/><path class="b" d="M148.3,31.636h-1.649l.32-1.814a.956.956,0,0,0-.942-1.122h-9.137a1.834,1.834,0,0,0-1.727,1.468l-1.181,6.7a1.171,1.171,0,0,0,1.153,1.374h.073a1.8,1.8,0,0,0,1.814,2.2,2.741,2.741,0,0,0,2.59-2.2h4.4a1.8,1.8,0,0,0,1.814,2.2,2.741,2.741,0,0,0,2.59-2.2h.666a.957.957,0,0,0,.942-.79l.448-2.539a.951.951,0,0,0-.113-.642l-1.236-2.156A.956.956,0,0,0,148.3,31.636Zm-11.082,7.707a.9.9,0,0,1-.907-1.1,1.371,1.371,0,0,1,1.3-1.1.9.9,0,0,1,.907,1.1,1.37,1.37,0,0,1-1.292,1.1Zm11.075-6.606,1.115,1.835h-3.274l.324-1.835Zm-2.267,6.606a.9.9,0,0,1-.907-1.1,1.371,1.371,0,0,1,1.3-1.1.9.9,0,0,1,.907,1.1,1.369,1.369,0,0,1-1.292,1.1Z" transform="translate(-125.149 -26.985)"/><line class="c" x2="6.028" transform="translate(2.796 3.285)"/><line class="c" x2="2.389" transform="translate(5.941 6.091)"/><line class="c" x2="4.295" transform="translate(3.539 8.896)"/><text class="d" transform="translate(9.646 8.014)"><tspan x="0" y="0">FREE</tspan></text></g></svg>